<svg xmlns="http://www.w3.org/2000/svg" xmlns:xlink="http://www.w3.org/1999/xlink" viewBox="0 0 346.33 88.01"><defs><style>.cls-1{fill:#262c5e;}.cls-2{fill:#3e9cdf;}.cls-3{fill:#30aedb;}.cls-4,.cls-5{fill:#4fd7f3;}.cls-5{opacity:0.49;}.cls-6{fill:url(#linear-gradient);}</style><linearGradient id="linear-gradient" x1="51.46" y1="-0.07" x2="3.57" y2="63.49" gradientUnits="userSpaceOnUse"><stop offset="0" stop-color="#fff" stop-opacity="0.5"/><stop offset="1" stop-color="#a2eaf4" stop-opacity="0.7"/></linearGradient></defs><title>logo_primary</title><g id="Layer_2" data-name="Layer 2"><g id="Layer_3" data-name="Layer 3"><path class="cls-1" d="M122.22,17.16h20a27.06,27.06,0,0,1,11.14,2.46A26.56,26.56,0,0,1,158.79,23a22.56,22.56,0,0,1,4.6,5,24.92,24.92,0,0,1,3.16,6.69,29,29,0,0,1,1.17,8.56,29,29,0,0,1-1.17,8.57,25.21,25.21,0,0,1-3.16,6.69,22.51,22.51,0,0,1-4.6,5,26.13,26.13,0,0,1-5.44,3.34,26.61,26.61,0,0,1-5.7,1.88,27.22,27.22,0,0,1-5.44.59h-20Zm6.17,46.31h11.76a28.29,28.29,0,0,0,8.31-1.17,17.86,17.86,0,0,0,6.62-3.64,17.15,17.15,0,0,0,4.41-6.29,23.5,23.5,0,0,0,1.62-9.19A23.5,23.5,0,0,0,159.49,34a17.11,17.11,0,0,0-4.41-6.28,17.58,17.58,0,0,0-6.62-3.64,28,28,0,0,0-8.31-1.18H128.39Z"/><path class="cls-1" d="M174,21.35a4.11,4.11,0,0,1,1.22-3,4.17,4.17,0,0,1,5.95,0,4.14,4.14,0,0,1-3,7.14A4,4,0,0,1,174,21.35M175.3,34.8H181V69.21H175.3Z"/><polygon class="cls-1" points="206.25 69.21 199.93 69.21 185.88 34.8 192.57 34.8 203.31 61.78 203.45 61.78 213.67 34.8 219.85 34.8 206.25 69.21"/><path class="cls-1" d="M223.38,21.35a4.1,4.1,0,0,1,1.21-3,4.18,4.18,0,0,1,6,0,4.1,4.1,0,0,1,1.21,3,4.19,4.19,0,1,1-8.38,0M224.7,34.8h5.73V69.21H224.7Z"/><path class="cls-1" d="M242,17.16h15.44a33.37,33.37,0,0,1,6.88.69,17,17,0,0,1,5.8,2.36,12.12,12.12,0,0,1,4.05,4.41,14,14,0,0,1,1.5,6.8,14,14,0,0,1-1.61,7.06,12.69,12.69,0,0,1-4.16,4.41,17,17,0,0,1-5.55,2.28,26.82,26.82,0,0,1-5.73.66H248.2V69.21H242Zm6.18,22.93h10.44A12.59,12.59,0,0,0,266.18,38q2.9-2.1,2.9-6.51t-2.9-6.5a12.6,12.6,0,0,0-7.54-2.1H248.2Z"/><path class="cls-1" d="M279.31,39.21a16.19,16.19,0,0,1,6.29-4A22.19,22.19,0,0,1,293,33.92q7.63,0,11,3.6c2.26,2.4,3.39,6.06,3.39,10.95V63.25c0,1,.05,2,.14,3s.22,2,.37,2.91H302.4a11.63,11.63,0,0,1-.33-2.61c0-1,0-1.8,0-2.54h-.15a13.43,13.43,0,0,1-4.52,4.34,13,13,0,0,1-6.8,1.69,18,18,0,0,1-5-.66,12.3,12.3,0,0,1-4.05-2,9.53,9.53,0,0,1-2.75-3.2,9.09,9.09,0,0,1-1-4.41,9.59,9.59,0,0,1,2.2-6.69,13.33,13.33,0,0,1,5.48-3.6,26.42,26.42,0,0,1,7.06-1.47q3.78-.3,6.95-.3h2.2v-1a7.06,7.06,0,0,0-2.24-5.66,9.44,9.44,0,0,0-6.29-1.91,16.84,16.84,0,0,0-5.47.92A13.18,13.18,0,0,0,282.91,43Zm16.62,13.46a20.55,20.55,0,0,0-8.75,1.54,5.24,5.24,0,0,0-3.24,5.07q0,3.24,2.17,4.6a10,10,0,0,0,5.4,1.36,10.47,10.47,0,0,0,4.38-.85A9.11,9.11,0,0,0,299,62.15a9.55,9.55,0,0,0,1.92-3.27,13.44,13.44,0,0,0,.73-4v-2.2Z"/><path class="cls-1" d="M329.72,77.07c-.59,1.47-1.19,2.81-1.81,4a12,12,0,0,1-2.2,3.09,8.73,8.73,0,0,1-3.09,2,12,12,0,0,1-4.37.7,23.64,23.64,0,0,1-2.61-.15A7.24,7.24,0,0,1,313.1,86l.74-5a6.77,6.77,0,0,0,1.83.48,20.5,20.5,0,0,0,2.21.11A5.18,5.18,0,0,0,322,80a13.73,13.73,0,0,0,2.28-4.12l2.35-6.47L312.37,34.8h6.69l10.66,27h.14l10.22-27h6.25Z"/><path class="cls-1" d="M43.89,80.83l-.91.08Z"/><path class="cls-1" d="M40.3,81h.27c-.46,0-.92,0-1.39,0Z"/><path class="cls-1" d="M38.65,81l-1.42-.09Z"/><path class="cls-1" d="M36.63,80.84l-1.35-.15Z"/><path class="cls-1" d="M46.56,80.51l-1,.14Z"/><path class="cls-1" d="M55.5,78l-1.38.53Z"/><path class="cls-1" d="M52.37,79.15l-1.14.34Z"/><path class="cls-1" d="M49.83,79.85c-.34.08-.69.18-1,.25C49.14,80,49.49,79.93,49.83,79.85Z"/><path class="cls-1" d="M34.61,80.6c-.43-.06-.85-.13-1.28-.21C33.76,80.47,34.18,80.54,34.61,80.6Z"/><path class="cls-1" d="M30.6,79.82l-1.21-.33Z"/><path class="cls-1" d="M40.29,39.51l16,38.18A40.47,40.47,0,0,0,56,3.14L55.48,3Z"/><path class="cls-1" d="M28.62,79.28c-.43-.13-.85-.28-1.28-.42C27.77,79,28.19,79.15,28.62,79.28Z"/><path class="cls-1" d="M26.64,78.62c-.59-.21-1.18-.44-1.77-.68C25.46,78.18,26.05,78.41,26.64,78.62Z"/><path class="cls-1" d="M32.6,80.26Q32,80.14,31.37,80,32,80.14,32.6,80.26Z"/><path class="cls-2" d="M24.56,77.81l.13.06.18.07-.18-.07Z"/><path class="cls-2" d="M31.37,80c-.26,0-.51-.1-.77-.17C30.86,79.89,31.11,79.94,31.37,80Z"/><path class="cls-2" d="M51.23,79.49c-.46.13-.93.25-1.4.36C50.3,79.74,50.77,79.62,51.23,79.49Z"/><path class="cls-2" d="M54.12,78.56c-.58.21-1.17.41-1.75.59C53,79,53.54,78.77,54.12,78.56Z"/><path class="cls-2" d="M56.29,77.71v0L55.5,78Z"/><path class="cls-2" d="M33.33,80.39l-.73-.13Z"/><path class="cls-2" d="M48.79,80.1c-.74.16-1.48.29-2.23.41C47.31,80.39,48.05,80.26,48.79,80.1Z"/><path class="cls-2" d="M29.39,79.49l-.77-.21Z"/><path class="cls-2" d="M37.23,80.88l-.6,0Z"/><path class="cls-2" d="M45.55,80.65c-.55.07-1.1.13-1.66.18C44.45,80.78,45,80.72,45.55,80.65Z"/><path class="cls-2" d="M39.18,81l-.53,0Z"/><path class="cls-2" d="M43,80.91c-.8.06-1.6.09-2.41.09C41.38,81,42.18,81,43,80.91Z"/><path class="cls-2" d="M27.34,78.86l-.7-.24Z"/><path class="cls-2" d="M35.28,80.69l-.67-.09Z"/><path class="cls-3" d="M24.29,77.69l.27.12.13.06.18.07c.59.24,1.18.47,1.77.68l.7.24c.43.14.85.29,1.28.42l.77.21,1.21.33c.26.07.51.12.77.17s.82.19,1.23.27l.73.13c.43.08.85.15,1.28.21l.67.09,1.35.15.6,0,1.42.09.53,0c.47,0,.93,0,1.39,0,.81,0,1.61,0,2.41-.09l.91-.08c.56,0,1.11-.11,1.66-.18l1-.14c.75-.12,1.49-.25,2.23-.41.35-.07.7-.17,1-.25s.94-.23,1.4-.36l1.14-.34c.58-.18,1.17-.38,1.75-.59L55.5,78l.78-.34-16-38.18Z"/><circle class="cls-4" cx="40.32" cy="40.51" r="13"/><path class="cls-5" d="M24.69,77.87l-.4-.18L21.6,84.1a46.79,46.79,0,0,0,37.38,0l-2.69-6.42A40.42,40.42,0,0,1,24.69,77.87Z"/><path class="cls-6" d="M27.32,40.51A13,13,0,0,1,44.86,28.34L55.48,3A40.28,40.28,0,0,0,40.33,0C-5.45,1.63-14.24,60.44,24.24,77.66L34.85,52.29A13,13,0,0,1,27.32,40.51Z"/></g></g></svg>